<svg width="15" height="15" viewBox="0 0 15 15" fill="none" xmlns="http://www.w3.org/2000/svg">
<path d="M13.965 7.6L6.665 0.3C6.57298 0.206107 6.46334 0.131281 6.34237 0.0798032C6.2214 0.0283258 6.09146 0.00120744 5.96 0H1C0.734784 0 0.48043 0.105357 0.292893 0.292893C0.105357 0.48043 0 0.734784 0 1V5.96C0.00111639 6.22479 0.107206 6.47832 0.295 6.665L7.595 13.965C7.68787 14.058 7.79816 14.1317 7.91956 14.1821C8.04096 14.2324 8.17108 14.2583 8.3025 14.2583C8.43392 14.2583 8.56404 14.2324 8.68544 14.1821C8.80684 14.1317 8.91713 14.058 9.01 13.965L13.96 9.015C14.0533 8.92246 14.1275 8.81243 14.1782 8.69121C14.229 8.56999 14.2553 8.43995 14.2558 8.30854C14.2563 8.17712 14.2308 8.0469 14.1809 7.92533C14.131 7.80375 14.0576 7.6932 13.965 7.6ZM2.825 3.655C2.66084 3.655 2.50037 3.60632 2.36388 3.51512C2.22738 3.42392 2.121 3.29429 2.05818 3.14263C1.99536 2.99096 1.97892 2.82408 2.01095 2.66307C2.04297 2.50207 2.12202 2.35418 2.2381 2.2381C2.35418 2.12202 2.50207 2.04297 2.66307 2.01095C2.82408 1.97892 2.99096 1.99536 3.14263 2.05818C3.29429 2.121 3.42392 2.22738 3.51512 2.36388C3.60632 2.50037 3.655 2.66084 3.655 2.825C3.655 3.04513 3.56755 3.25624 3.4119 3.4119C3.25624 3.56755 3.04513 3.655 2.825 3.655Z" fill="#7DCDC6"/>
</svg>
